<?xml version="1.0" standalone="no"?>
<!DOCTYPE svg PUBLIC "-//W3C//DTD SVG 20010904//EN"
 "http://www.w3.org/TR/2001/REC-SVG-20010904/DTD/svg10.dtd">
<svg version="1.0" xmlns="http://www.w3.org/2000/svg"
 width="807.000000pt" height="807.000000pt" viewBox="0 0 807.000000 807.000000"
 preserveAspectRatio="xMidYMid meet">
<metadata>
Created by potrace 1.14, written by Peter Selinger 2001-2017
</metadata>
<g transform="translate(0.000000,807.000000) scale(0.100000,-0.100000)"
fill="#000000" stroke="none">
<path d="M3808 8066 c-1 -2 -43 -6 -93 -10 -148 -10 -298 -31 -455 -62 -41 -9
-86 -18 -100 -20 -46 -9 -184 -45 -284 -75 -308 -91 -645 -240 -917 -404 -96
-59 -320 -208 -342 -229 -7 -6 -38 -30 -70 -54 -168 -126 -419 -366 -580 -555
-23 -28 -47 -55 -53 -61 -5 -6 -44 -56 -85 -111 -40 -55 -77 -102 -80 -105 -8
-7 -153 -229 -173 -265 -9 -16 -26 -46 -38 -65 -61 -101 -193 -375 -251 -520
-85 -217 -117 -318 -177 -560 -25 -102 -32 -139 -45 -215 -2 -11 -8 -47 -14
-80 -6 -33 -13 -82 -16 -110 -3 -27 -8 -59 -10 -70 -26 -130 -27 -701 0 -905
14 -112 18 -140 35 -240 19 -109 25 -140 57 -270 144 -596 456 -1202 857
-1666 62 -72 345 -357 406 -409 530 -452 1104 -743 1765 -894 72 -16 146 -32
165 -35 19 -3 44 -7 55 -10 32 -6 96 -15 150 -21 28 -4 68 -8 90 -11 91 -13
152 -16 390 -18 138 -2 286 0 330 4 44 5 109 11 145 14 80 8 123 13 158 20 15
3 47 8 72 11 25 4 96 17 159 31 606 130 1136 371 1622 739 234 178 489 423
659 634 19 24 40 48 45 55 11 12 78 99 142 186 34 46 94 138 160 245 90 147
179 319 248 480 25 61 52 124 60 140 25 59 118 343 141 432 18 72 65 285 69
318 3 22 8 47 10 55 5 18 11 62 21 145 3 33 8 69 10 80 25 136 25 752 0 882
-3 12 -7 50 -11 85 -6 64 -57 334 -74 398 -5 19 -22 80 -36 135 -127 477 -366
960 -675 1368 -186 246 -400 469 -635 664 -116 96 -114 94 -155 123 -19 13
-37 27 -40 30 -3 4 -52 39 -111 78 -408 275 -851 472 -1319 588 -41 10 -259
54 -290 59 -52 7 -113 17 -131 20 -9 2 -52 6 -95 10 -43 4 -88 9 -99 12 -22 5
-561 13 -567 9z"/>
</g>
</svg>
